<svg width="400" height="400" viewBox="0 0 400 400" fill="none" xmlns="http://www.w3.org/2000/svg">
<path d="M212.105 1.51434C222.062 1.46478 227.754 1.47905 237.591 2.66775C279.762 7.76377 320.793 26.2778 347.338 60.283C362.229 79.3585 372.006 107.033 368.936 131.345C349.588 131.628 329.844 131.436 310.462 131.437L216.648 131.443L110.407 131.449L77.1394 131.447C71.3139 131.445 64.8794 131.309 59.1089 131.489C59.0999 125.262 58.7077 117.335 59.4695 111.274C67.8721 44.4329 137.856 5.57035 199.771 1.69442C203.867 1.43805 208.051 1.52186 212.105 1.51434Z" fill="#B9D4DA"/>
<path d="M13.1398 3.24031C22.5949 2.74418 33.2514 3.19203 42.8211 3.05936C52.5788 3.1022 62.3519 3.00484 72.1079 3.14269C73.8319 3.23616 75.7813 3.32858 77.4331 3.8312C83.2639 5.60464 88.0005 11.8687 87.6121 18.0265C87.3785 21.9143 85.6232 25.5541 82.7255 28.1591C80.8294 29.843 78.5434 31.0284 76.0741 31.6084C73.3679 32.2403 64.7828 32.0739 61.5101 32.0344C56.2582 31.9713 49.5374 32.2078 44.4017 31.8584C43.9147 35.5714 44.1735 47.6262 44.1647 51.9893L44.1387 94.7095L44.1003 158.03L44.0995 185.426C44.1148 190.695 44.007 196.614 44.2767 201.84C47.2355 202.443 51.0585 203.782 53.9521 204.857C99.3062 221.815 136.114 255.996 156.355 299.952C168.134 325.652 173.183 352.88 172.426 381.023C172.317 385.096 172.248 394.333 170.893 397.973C170.228 398.464 169.825 398.29 168.812 398.329C165.844 398.401 157.76 398.856 155.299 397.9C149.403 395.616 142.813 392.139 137.091 389.297L110.458 376.344L59.9214 351.675L43.2909 343.547C38.745 341.364 33.8212 339.196 29.4666 336.711C29.9166 332.01 30.6821 326.817 31.1901 322.009L38.9133 250.443C39.631 243.436 40.3037 236.367 41.2132 229.386C41.7027 225.629 41.9542 222.236 42.0951 218.456C38.9663 221.558 37.2327 223.895 32.6366 225.123C25.8582 227.332 17.2798 221.345 15.7748 214.637C14.8363 210.454 15.1455 203.276 15.146 198.761L15.1367 176.058L15.1354 156.657C15.1367 150.37 14.2332 143.232 17.8265 137.86C20.8633 133.32 24.0323 131.692 29.1958 130.548L29.2533 32.0949C19.0571 31.68 5.92534 34.9257 0.953037 22.7084C0.593938 21.8263 0.344229 20.8145 0.188844 19.8758C-0.445165 16.0153 0.532354 12.0639 2.89378 8.94331C5.44021 5.63839 9.02705 3.74371 13.1398 3.24031Z" fill="#B9D4DA"/>
<path d="M69.6062 161.815C78.8811 161.285 90.691 161.584 100.117 161.583L153.715 161.582L317.845 161.588C330.861 161.591 343.924 161.532 356.937 161.681C359.315 161.708 362.321 162.555 364.696 162.786C367.638 163.072 371.429 163.151 374.357 162.985C374.617 165.864 374.461 168.637 374.365 171.523C365.2 173.683 353.868 175.255 344.425 176.862L290.579 186.02L260.587 191.219C256.499 191.933 247.737 193.721 244.058 193.693C243.52 202.393 243.904 215.249 243.907 224.149L243.902 280.559L243.907 365.242L243.86 387.936C243.824 391.27 243.543 395.067 243.626 398.308C238.913 398.063 230.662 398.414 225.504 398.417C213.141 398.425 200.603 398.349 188.256 398.5C188.425 394.773 188.284 390.098 188.277 386.312L188.286 365.065L188.192 291.065L188.204 229.666C188.222 219.474 188.68 205.465 188.082 195.525C179.403 194.704 168.054 192.404 159.264 190.917L89.9045 178.847L69.2219 175.26C65.5604 174.622 61.2279 173.706 57.632 173.305C57.3192 170.231 57.6757 166.443 57.5624 163.15C63.3168 163.416 64.5636 162.406 69.3004 161.849L69.6062 161.815Z" fill="#B9D4DA"/>
<path d="M384.169 201.004C384.375 200.983 384.869 201.051 385.098 201.071C385.769 201.91 386.157 205.392 386.287 206.543C389.29 233.044 391.718 259.808 394.783 286.282L398.124 316.502C398.632 320.864 400.253 332.116 399.966 336.198C397.731 338.06 387.039 342.866 383.763 344.445L353.912 358.986L300.01 385.213C291.907 389.157 281.532 394.698 273.526 398.066C269.857 398.835 263.487 398.251 259.404 398.5C257.728 389.056 258.088 379.404 258.01 369.851C257.983 366.436 257.997 363.021 258.236 359.612C260.461 331.311 269.313 303.926 284.082 279.663C302.508 249.422 329.356 225.189 361.351 209.916C366.964 207.213 378.083 202.5 384.169 201.004Z" fill="#B9D4DA"/>
</svg>
